<?xml version="1.0" standalone="no"?>
<!DOCTYPE svg PUBLIC "-//W3C//DTD SVG 20010904//EN"
 "http://www.w3.org/TR/2001/REC-SVG-20010904/DTD/svg10.dtd">
<svg version="1.0" xmlns="http://www.w3.org/2000/svg"
 width="500.000000pt" height="500.000000pt" viewBox="0 0 500.000000 500.000000"
 preserveAspectRatio="xMidYMid meet">
<metadata>
Created by potrace 1.14, written by Peter Selinger 2001-2017
</metadata>
<g transform="translate(0.000000,500.000000) scale(0.100000,-0.100000)"
fill="#000000" stroke="none">
<path d="M1002 4878 c-5 -7 -13 -23 -16 -35 -4 -12 -24 -62 -46 -112 -22 -52
-34 -93 -29 -97 6 -3 17 13 26 36 l16 41 66 -3 c64 -3 65 -4 75 -35 5 -18 15
-33 22 -33 17 0 17 0 0 36 -7 16 -30 71 -51 122 -21 50 -41 92 -45 92 -4 0
-12 -6 -18 -12z m46 -90 l21 -58 -49 0 c-28 0 -50 3 -50 6 0 20 44 124 50 117
4 -4 16 -34 28 -65z"/>
<path d="M1239 4875 c-5 -101 0 -228 9 -237 9 -9 12 2 12 45 l0 57 33 1 c57 1
82 9 100 30 30 37 20 82 -24 104 -38 20 -129 20 -130 0z m136 -31 c20 -26 18
-41 -5 -64 -15 -15 -32 -20 -65 -18 l-45 1 0 55 0 55 50 -5 c34 -4 55 -11 65
-24z"/>
<path d="M1570 4843 c-12 -27 -33 -77 -47 -113 -15 -36 -30 -70 -35 -77 -5 -7
-5 -14 2 -18 6 -4 18 10 28 34 l17 41 62 0 c61 0 62 0 79 -35 17 -36 34 -54
34 -36 0 19 -102 251 -110 251 -5 0 -19 -21 -30 -47z m56 -45 c10 -29 21 -56
22 -60 2 -4 -19 -8 -47 -8 -28 0 -51 3 -51 7 0 14 44 113 50 113 3 0 15 -23
26 -52z"/>
<path d="M1820 4758 c0 -83 4 -128 9 -122 6 5 11 32 13 59 3 45 6 50 28 53 19
2 31 -6 47 -30 31 -46 74 -90 80 -84 3 3 -13 30 -35 59 l-41 54 25 12 c34 15
50 54 36 86 -14 31 -49 45 -113 45 l-49 0 0 -132z m136 87 c18 -24 18 -28 -3
-54 -13 -16 -31 -22 -63 -24 l-45 -2 -3 52 -4 53 53 -4 c36 -2 56 -8 65 -21z"/>
<path d="M2090 4880 c0 -5 20 -10 45 -10 l45 0 0 -122 c0 -86 3 -119 11 -111
6 6 10 56 10 121 0 62 3 111 7 111 28 -5 82 3 82 11 0 6 -40 10 -100 10 -60 0
-100 -4 -100 -10z"/>
<path d="M2392 4768 c-28 -67 -48 -127 -44 -132 3 -6 14 9 24 32 l19 42 62 0
62 0 17 -41 c10 -22 21 -38 27 -35 11 7 -89 248 -106 253 -6 2 -33 -51 -61
-119z m87 31 c11 -29 21 -56 21 -60 0 -5 -22 -9 -49 -9 l-50 0 22 60 c12 33
25 60 28 60 4 0 16 -23 28 -51z"/>
<path d="M2677 4883 c-4 -7 -2 -241 2 -253 1 -3 5 0 9 7 4 6 7 57 6 112 -1 56
-1 101 0 101 2 0 24 -32 50 -70 l48 -70 47 67 46 67 3 -107 c2 -66 6 -105 12
-102 13 8 13 255 1 255 -6 0 -27 -25 -48 -56 -21 -30 -43 -62 -49 -71 -9 -13
-19 -5 -60 55 -48 70 -58 80 -67 65z"/>
<path d="M3048 4878 c-4 -11 -3 -223 1 -238 1 -5 124 -5 141 -1 3 1 -1 5 -8
10 -8 4 -36 7 -63 6 -52 -3 -51 -4 -51 60 0 42 1 43 35 43 55 -1 67 2 67 13 0
6 -20 9 -52 8 -52 -3 -52 -3 -51 26 2 68 -2 65 64 65 37 0 58 4 54 10 -9 15
-132 13 -137 -2z"/>
<path d="M3309 4868 c-1 -28 -1 -198 0 -215 1 -7 6 -13 11 -13 6 0 10 42 10
106 l0 106 81 -110 c45 -61 87 -108 93 -106 14 5 10 254 -4 254 -5 0 -11 -48
-12 -107 l-3 -106 -45 63 c-25 34 -50 67 -55 74 -6 6 -21 26 -34 44 -26 38
-41 41 -42 10z"/>
<path d="M3625 4880 c-4 -6 12 -10 39 -10 l46 0 0 -121 c0 -77 4 -118 10 -114
6 4 10 55 10 121 l0 114 45 0 c25 0 45 5 45 10 0 6 -38 10 -94 10 -53 0 -98
-4 -101 -10z"/>
<path d="M3910 4884 c0 -3 21 -34 46 -69 38 -55 45 -71 46 -113 0 -27 4 -55 9
-63 10 -16 11 -12 13 62 1 45 13 69 82 167 13 17 14 22 3 22 -8 0 -33 -28 -56
-61 l-41 -61 -41 61 c-36 53 -61 75 -61 55z"/>
<path d="M924 4349 c-16 -4 697 -7 1585 -8 888 0 1612 2 1609 5 -8 8 -3157 11
-3194 3z"/>
<path d="M900 2855 l0 -1195 200 0 200 0 2 450 3 451 36 -108 c20 -59 88 -262
150 -450 l113 -343 208 0 c114 0 208 4 208 8 0 5 -23 73 -51 153 -27 79 -61
176 -74 214 -13 39 -60 174 -104 302 l-80 232 50 138 c28 76 69 188 91 248 41
110 41 110 42 268 1 87 -1 160 -6 163 -5 3 -23 0 -42 -6 -18 -6 -42 -12 -52
-15 -34 -7 -184 -52 -187 -56 -2 -2 -16 -35 -32 -74 -15 -38 -34 -83 -41 -100
-7 -16 -22 -55 -34 -85 -11 -30 -25 -64 -30 -75 -15 -32 -109 -263 -136 -334
-13 -36 -26 -67 -29 -69 -2 -3 -4 302 -4 678 0 375 -2 684 -4 686 -4 5 -376
114 -387 114 -6 0 -10 -446 -10 -1195z"/>
<path d="M2220 3926 c-130 -27 -221 -119 -246 -251 -4 -22 -8 -137 -8 -255
l-1 -215 202 -2 202 -2 3 161 c3 154 4 160 27 179 17 14 39 19 81 19 76 0 105
-12 117 -47 5 -15 8 -131 7 -256 -1 -200 -3 -230 -18 -245 -14 -14 -41 -18
-150 -20 l-134 -4 2 -176 1 -176 120 -2 c66 0 128 -2 138 -3 36 -2 43 -53 42
-309 -1 -232 -2 -244 -22 -264 -23 -23 -116 -32 -165 -16 -39 14 -48 53 -48
209 l0 139 -204 0 -205 0 4 -227 c2 -143 7 -243 15 -268 31 -101 82 -162 170
-204 54 -25 57 -26 320 -28 232 -2 271 0 317 16 115 39 183 118 209 240 19 92
20 664 0 736 -18 68 -40 108 -75 138 l-30 25 34 36 c18 20 44 62 56 93 22 55
23 73 27 363 3 261 1 315 -13 375 -30 120 -89 188 -200 230 -43 17 -81 19
-285 20 -139 1 -257 -3 -290 -9z"/>
<path d="M3348 3935 c-2 -2 -22 -5 -45 -9 -93 -12 -183 -78 -223 -163 -22 -46
-22 -62 -4 -159 5 -28 8 -420 4 -534 -1 -30 -10 -86 -20 -125 -20 -82 -19
-102 4 -172 22 -65 61 -120 112 -155 66 -46 145 -60 353 -61 l186 -2 1 -230
c0 -127 -3 -240 -9 -251 -14 -32 -43 -40 -130 -39 -116 3 -120 8 -121 180 l-1
135 -185 -2 -185 -3 -1 -130 c-2 -168 -6 -235 -15 -261 -10 -29 26 -130 63
-177 39 -48 89 -81 159 -101 44 -13 99 -16 319 -14 263 3 266 3 321 29 97 46
150 116 179 239 10 43 13 235 12 870 0 448 -3 826 -6 840 -3 14 -9 39 -12 55
-9 40 -47 115 -74 143 -29 30 -88 67 -125 77 -16 4 -37 10 -45 12 -16 5 -507
12 -512 8z m343 -394 l24 -19 1 -306 1 -306 -116 0 c-85 0 -122 4 -137 14 -18
14 -19 30 -21 301 l-1 288 23 23 c22 22 33 24 113 24 74 0 94 -3 113 -19z"/>
<path d="M894 1388 c-2 -3 50 -6 116 -6 66 0 120 3 120 7 0 9 -231 8 -236 -1z"/>
<path d="M1140 1388 c0 -4 7 -8 15 -8 8 0 15 4 15 8 0 5 -7 9 -15 9 -8 0 -15
-4 -15 -9z"/>
<path d="M1180 1388 c0 -11 68 -10 74 0 3 5 -13 8 -34 8 -22 -1 -40 -4 -40 -8z"/>
<path d="M1270 1388 c0 -11 38 -10 44 1 3 5 -5 8 -19 7 -14 0 -25 -4 -25 -8z"/>
<path d="M1330 1388 c0 -4 9 -8 20 -8 11 0 20 4 20 8 0 4 -9 8 -20 8 -11 0
-20 -4 -20 -8z"/>
<path d="M1380 1388 c0 -4 7 -8 15 -8 8 0 15 4 15 8 0 5 -7 9 -15 9 -8 0 -15
-4 -15 -9z"/>
<path d="M1420 1388 c0 -9 229 -8 234 1 3 4 -49 6 -115 6 -65 0 -119 -3 -119
-7z"/>
<path d="M1670 1388 c0 -11 38 -10 44 1 3 5 -5 8 -19 7 -14 0 -25 -4 -25 -8z"/>
<path d="M1730 1388 c0 -11 78 -10 84 0 3 5 -15 8 -40 8 -24 -1 -44 -4 -44 -8z"/>
<path d="M1830 1388 c0 -11 38 -10 44 1 3 5 -5 8 -19 7 -14 0 -25 -4 -25 -8z"/>
<path d="M1890 1387 c0 -4 45 -6 100 -6 55 1 100 5 100 9 0 3 -45 6 -100 6
-55 -1 -100 -4 -100 -9z"/>
<path d="M2100 1388 c0 -4 7 -8 15 -8 8 0 15 4 15 8 0 5 -7 9 -15 9 -8 0 -15
-4 -15 -9z"/>
<path d="M2140 1388 c0 -11 68 -10 74 0 3 5 -13 8 -34 8 -22 -1 -40 -4 -40 -8z"/>
<path d="M2230 1388 c0 -11 38 -10 44 1 3 5 -5 8 -19 7 -14 0 -25 -4 -25 -8z"/>
<path d="M2290 1388 c0 -4 9 -8 20 -8 11 0 20 4 20 8 0 4 -9 8 -20 8 -11 0
-20 -4 -20 -8z"/>
<path d="M2340 1388 c0 -4 7 -8 15 -8 8 0 15 4 15 8 0 5 -7 9 -15 9 -8 0 -15
-4 -15 -9z"/>
<path d="M2380 1388 c0 -4 79 -7 175 -6 96 0 175 4 175 7 0 3 -79 6 -175 6
-96 0 -175 -3 -175 -7z"/>
<path d="M2740 1388 c0 -4 7 -8 15 -8 8 0 15 4 15 8 0 5 -7 9 -15 9 -8 0 -15
-4 -15 -9z"/>
<path d="M2780 1388 c0 -11 68 -10 74 0 3 5 -13 8 -34 8 -22 -1 -40 -4 -40 -8z"/>
<path d="M2870 1388 c0 -11 38 -10 44 1 3 5 -5 8 -19 7 -14 0 -25 -4 -25 -8z"/>
<path d="M2930 1388 c0 -4 9 -8 20 -8 11 0 20 4 20 8 0 4 -9 8 -20 8 -11 0
-20 -4 -20 -8z"/>
<path d="M2980 1388 c0 -4 7 -8 15 -8 8 0 15 4 15 8 0 5 -7 9 -15 9 -8 0 -15
-4 -15 -9z"/>
<path d="M3020 1388 c0 -9 229 -8 234 1 3 4 -49 6 -115 6 -65 0 -119 -3 -119
-7z"/>
<path d="M3270 1388 c0 -11 38 -10 44 1 3 5 -5 8 -19 7 -14 0 -25 -4 -25 -8z"/>
<path d="M3330 1388 c0 -11 78 -10 84 0 3 5 -15 8 -40 8 -24 -1 -44 -4 -44 -8z"/>
<path d="M3430 1388 c0 -11 38 -10 44 1 3 5 -5 8 -19 7 -14 0 -25 -4 -25 -8z"/>
<path d="M3490 1387 c0 -4 45 -6 100 -6 55 1 100 5 100 9 0 3 -45 6 -100 6
-55 -1 -100 -4 -100 -9z"/>
<path d="M3700 1388 c0 -4 7 -8 15 -8 8 0 15 4 15 8 0 5 -7 9 -15 9 -8 0 -15
-4 -15 -9z"/>
<path d="M3740 1388 c0 -11 68 -10 74 0 3 5 -13 8 -34 8 -22 -1 -40 -4 -40 -8z"/>
<path d="M3830 1388 c0 -11 38 -10 44 1 3 5 -5 8 -19 7 -14 0 -25 -4 -25 -8z"/>
<path d="M3890 1388 c0 -4 9 -8 20 -8 11 0 20 4 20 8 0 4 -9 8 -20 8 -11 0
-20 -4 -20 -8z"/>
<path d="M3940 1388 c0 -4 7 -8 15 -8 8 0 15 4 15 8 0 5 -7 9 -15 9 -8 0 -15
-4 -15 -9z"/>
<path d="M3980 1387 c0 -4 27 -7 60 -6 33 1 58 4 55 7 -8 9 -115 8 -115 -1z"/>
<path d="M4110 1390 c0 -5 5 -10 11 -10 5 0 7 5 4 10 -3 6 -8 10 -11 10 -2 0
-4 -4 -4 -10z"/>
<path d="M901 965 c0 -70 4 -127 9 -130 11 -7 13 3 11 63 -1 24 1 47 4 52 3 4
29 -15 58 -43 68 -67 87 -82 87 -69 0 6 -28 38 -61 72 l-61 60 63 60 c36 33
57 60 49 60 -9 0 -40 -25 -70 -55 -30 -30 -57 -55 -60 -55 -4 0 -7 21 -7 48
-2 62 -2 62 -12 62 -6 0 -10 -53 -10 -125z"/>
<path d="M1249 1043 c-63 -146 -80 -194 -76 -205 3 -7 13 6 23 30 l17 42 64 0
c34 0 63 -3 63 -7 0 -14 41 -75 46 -70 3 3 -12 47 -34 98 -21 52 -45 109 -52
127 -7 17 -17 32 -22 32 -5 0 -18 -21 -29 -47z m59 -60 l20 -53 -49 0 c-27 0
-49 4 -49 9 0 21 44 111 51 104 4 -4 16 -32 27 -60z"/>
<path d="M1445 1080 c-5 -8 46 -16 77 -11 4 0 7 -50 7 -112 -1 -61 3 -114 8
-117 4 -3 9 48 11 113 l3 117 44 0 c25 0 45 5 45 10 0 6 -38 10 -94 10 -53 0
-98 -4 -101 -10z"/>
<path d="M1784 1071 c-81 -50 -75 -185 11 -225 59 -28 126 -11 160 40 75 116
-54 256 -171 185z m110 -11 c55 -20 79 -102 45 -156 -43 -70 -142 -68 -177 4
-47 95 35 189 132 152z"/>
<path d="M2071 1068 c2 -36 73 -233 84 -231 5 1 25 48 44 105 19 57 35 99 37
93 10 -44 58 -192 64 -199 12 -12 26 20 64 141 33 103 36 128 17 107 -10 -10
-63 -170 -64 -191 -1 -36 -29 18 -43 82 -7 36 -38 115 -44 115 -4 0 -15 -26
-25 -57 -54 -182 -48 -180 -91 -36 -26 88 -45 120 -43 71z"/>
<path d="M2509 1088 c-6 -13 -4 -237 2 -248 5 -8 9 -13 10 -10 7 19 5 260 -2
260 -5 0 -10 -1 -10 -2z"/>
<path d="M2702 1070 c-49 -30 -62 -68 -53 -157 0 -6 14 -25 31 -41 36 -36 97
-50 141 -32 29 13 42 37 13 26 -36 -14 -65 -18 -89 -12 -31 8 -75 51 -76 76
-1 11 -2 26 -3 33 -4 28 19 70 48 88 35 21 96 25 114 7 9 -9 12 -8 12 4 0 32
-89 38 -138 8z"/>
<path d="M2968 1077 c-3 -10 -2 -185 1 -235 1 -7 5 -11 10 -7 5 3 9 32 8 65
-1 33 0 60 3 60 3 0 34 -29 70 -65 35 -35 68 -61 73 -58 5 3 -20 35 -56 72
l-64 66 52 45 c52 44 73 70 56 70 -4 0 -35 -25 -67 -55 -33 -30 -61 -54 -64
-55 -3 0 -5 23 -4 50 2 47 -9 75 -18 47z"/>
<path d="M3281 969 c-28 -67 -51 -126 -51 -131 0 -18 21 4 35 38 14 33 15 34
75 34 59 0 61 -1 77 -35 9 -19 22 -36 29 -39 7 -3 -8 43 -33 102 -25 59 -49
117 -54 130 -5 12 -13 22 -18 22 -5 0 -32 -55 -60 -121z m82 39 c8 -24 18 -51
22 -60 6 -16 1 -18 -45 -18 -28 0 -50 4 -48 8 2 4 12 31 22 60 11 29 23 52 27
52 4 0 14 -19 22 -42z"/>
<path d="M3733 1083 c-27 -11 -11 -21 26 -16 32 4 41 1 54 -17 21 -31 8 -63
-31 -75 -40 -12 -41 -25 -2 -25 36 0 61 -40 43 -68 -17 -27 -59 -38 -88 -22
-27 14 -38 11 -27 -7 4 -7 25 -15 47 -18 77 -13 124 60 75 113 -12 12 -16 22
-11 22 9 0 22 27 27 59 4 22 -42 61 -73 60 -15 0 -34 -3 -40 -6z"/>
<path d="M3985 1065 c-56 -55 -6 -140 71 -121 20 5 23 4 15 -6 -24 -28 -61
-89 -61 -101 0 -19 36 24 74 87 21 35 36 73 36 91 0 68 -86 100 -135 50z m99
-17 c22 -31 20 -54 -6 -72 -43 -30 -88 -13 -95 37 -8 51 71 78 101 35z"/>
<path d="M1099 686 c-84 -30 -133 -75 -174 -161 -28 -57 -27 -183 2 -245 94
-206 377 -229 498 -40 125 197 -8 459 -235 459 -30 0 -71 -6 -91 -13z m181
-21 c155 -52 224 -261 133 -408 -52 -85 -124 -126 -222 -127 -84 0 -130 18
-186 75 -158 157 -83 427 131 473 47 10 85 7 144 -13z"/>
<path d="M1773 690 c-17 -5 -18 -19 -17 -280 2 -305 1 -300 12 -283 4 6 7 63
6 127 l-1 116 81 0 c149 1 196 15 240 73 56 74 31 180 -53 222 -29 15 -64 23
-109 24 -37 1 -83 3 -103 4 -20 1 -45 0 -56 -3z m255 -37 c67 -33 94 -104 66
-171 -29 -70 -74 -89 -219 -91 l-101 -2 0 138 c0 76 3 141 8 144 4 3 53 4 109
2 72 -1 111 -7 137 -20z"/>
<path d="M2570 690 c-212 -62 -279 -353 -115 -503 109 -101 272 -102 383 -2
152 137 119 393 -62 488 -43 22 -157 32 -206 17z m210 -40 c79 -41 132 -139
133 -244 1 -85 -23 -145 -77 -199 -52 -53 -92 -70 -172 -75 -62 -4 -79 -1
-125 21 -104 49 -152 128 -153 252 0 87 20 141 73 198 74 81 216 102 321 47z"/>
<path d="M3220 685 c-6 -73 -3 -558 3 -562 4 -3 65 -5 135 -5 167 0 172 1 172
11 0 4 -60 8 -132 7 -73 -1 -140 0 -148 2 -14 3 -16 38 -15 268 0 145 -3 272
-7 281 -6 16 -7 16 -8 -2z"/>
<path d="M3810 408 c0 -249 2 -288 15 -289 8 0 71 0 140 0 158 0 155 -1 155 9
0 5 -60 8 -132 7 -73 0 -139 1 -145 3 -10 3 -13 39 -13 137 l0 132 108 1 c145
0 154 1 148 10 -2 4 -61 7 -130 7 l-126 -1 0 126 0 125 141 -1 c77 0 142 3
145 8 3 4 -19 8 -48 9 -29 0 -99 1 -156 2 l-102 2 0 -287z"/>
</g>
</svg>
